<?xml version="1.0" encoding="utf-8"?>
<svg width="309.000000pt" height="253.000000pt" viewBox="0 0 309.000000 253.000000" preserveAspectRatio="xMidYMid meet" xmlns="http://www.w3.org/2000/svg">
  <g transform="translate(0.000000,253.000000) scale(0.100000,-0.100000)" fill="#000000" stroke="none">
    <path d="M849 1830 c-28 -29 -46 -63 -65 -122 -26 -77 -28 -95 -28 -258 -1&#10;-96 1 -192 4 -213 l5 -39 -80 -32 c-266 -106 -476 -304 -440 -416 4 -13 25&#10;-30 53 -42 85 -38 236 -7 415 84 54 28 124 70 156 93 l59 43 58 -44 c129 -97&#10;371 -194 484 -194 54 0 108 18 125 43 75 107 -151 329 -450 442 l-60 23 5 49&#10;c3 26 5 107 5 178 -1 150 -20 252 -66 344 -55 111 -114 130 -180 61z" style="fill: rgb(37, 34, 224);"/>
  </g>
  <g transform="matrix(-0.1, 0, 0, 0.1, 280.76651, -3.017639)" fill="#000000" stroke="none">
    <path d="M849 1830 c-28 -29 -46 -63 -65 -122 -26 -77 -28 -95 -28 -258 -1&#10;-96 1 -192 4 -213 l5 -39 -80 -32 c-266 -106 -476 -304 -440 -416 4 -13 25&#10;-30 53 -42 85 -38 236 -7 415 84 54 28 124 70 156 93 l59 43 58 -44 c129 -97&#10;371 -194 484 -194 54 0 108 18 125 43 75 107 -151 329 -450 442 l-60 23 5 49&#10;c3 26 5 107 5 178 -1 150 -20 252 -66 344 -55 111 -114 130 -180 61z" style="stroke: rgb(76, 162, 204); fill-rule: evenodd; fill: rgba(53, 130, 218, 0.992157);"/>
  </g>
</svg>